<svg width="19" height="20" viewBox="0 0 19 20" fill="none" xmlns="http://www.w3.org/2000/svg">
<path fill-rule="evenodd" clip-rule="evenodd" d="M8.52232 0.811156C9.02066 0.534302 9.62661 0.534302 10.1249 0.811156L17.3249 4.81116C17.8488 5.10217 18.1736 5.65429 18.1736 6.25352V14.1944C18.1736 14.7936 17.8488 15.3457 17.3249 15.6367L10.1249 19.6367C9.62661 19.9136 9.02066 19.9136 8.52232 19.6368L1.32232 15.6367C0.798503 15.3457 0.473633 14.7936 0.473633 14.1944V6.25352C0.473633 5.65429 0.798504 5.10217 1.32232 4.81116L8.52232 0.811156ZM9.39648 2.12239C9.35118 2.09722 9.29609 2.09722 9.25079 2.12239L2.05079 6.12239C2.00317 6.14885 1.97363 6.19904 1.97363 6.25352V14.1944C1.97363 14.2489 2.00317 14.2991 2.05079 14.3255L9.25079 18.3255C9.29609 18.3507 9.35118 18.3507 9.39648 18.3255L16.5965 14.3255C16.6441 14.2991 16.6736 14.2489 16.6736 14.1944V6.25352C16.6736 6.19904 16.6441 6.14885 16.5965 6.12239L9.39648 2.12239Z" fill="#FF5A3C"/>
<path fill-rule="evenodd" clip-rule="evenodd" d="M4.57363 10.224C4.57363 7.6006 6.70028 5.47395 9.32363 5.47395C11.947 5.47395 14.0736 7.6006 14.0736 10.224C14.0736 12.8473 11.947 14.974 9.32363 14.974C6.70028 14.974 4.57363 12.8473 4.57363 10.224ZM9.32363 6.97395C7.52871 6.97395 6.07363 8.42903 6.07363 10.224C6.07363 12.0189 7.52871 13.474 9.32363 13.474C11.1186 13.474 12.5736 12.0189 12.5736 10.224C12.5736 8.42903 11.1186 6.97395 9.32363 6.97395Z" fill="#FF5A3C"/>
</svg>
