<svg width="14" height="14" viewBox="0 0 14 14" fill="none" xmlns="http://www.w3.org/2000/svg">
<path d="M6.72754 4.00586C8.57324 4.00586 10.0967 5.5293 10.0967 7.375C10.0967 9.25 8.57324 10.7441 6.72754 10.7441C4.85254 10.7441 3.3584 9.25 3.3584 7.375C3.3584 5.5293 4.85254 4.00586 6.72754 4.00586ZM6.72754 9.57227C7.92871 9.57227 8.89551 8.60547 8.89551 7.375C8.89551 6.17383 7.92871 5.20703 6.72754 5.20703C5.49707 5.20703 4.53027 6.17383 4.53027 7.375C4.53027 8.60547 5.52637 9.57227 6.72754 9.57227ZM11.0049 3.88867C11.0049 4.32812 10.6533 4.67969 10.2139 4.67969C9.77441 4.67969 9.42285 4.32812 9.42285 3.88867C9.42285 3.44922 9.77441 3.09766 10.2139 3.09766C10.6533 3.09766 11.0049 3.44922 11.0049 3.88867ZM13.2314 4.67969C13.29 5.76367 13.29 9.01562 13.2314 10.0996C13.1729 11.1543 12.9385 12.0625 12.1768 12.8535C11.415 13.6152 10.4775 13.8496 9.42285 13.9082C8.33887 13.9668 5.08691 13.9668 4.00293 13.9082C2.94824 13.8496 2.04004 13.6152 1.24902 12.8535C0.487305 12.0625 0.25293 11.1543 0.194336 10.0996C0.135742 9.01562 0.135742 5.76367 0.194336 4.67969C0.25293 3.625 0.487305 2.6875 1.24902 1.92578C2.04004 1.16406 2.94824 0.929688 4.00293 0.871094C5.08691 0.8125 8.33887 0.8125 9.42285 0.871094C10.4775 0.929688 11.415 1.16406 12.1768 1.92578C12.9385 2.6875 13.1729 3.625 13.2314 4.67969ZM11.8252 11.2422C12.1768 10.3926 12.0889 8.3418 12.0889 7.375C12.0889 6.4375 12.1768 4.38672 11.8252 3.50781C11.5908 2.95117 11.1514 2.48242 10.5947 2.27734C9.71582 1.92578 7.66504 2.01367 6.72754 2.01367C5.76074 2.01367 3.70996 1.92578 2.86035 2.27734C2.27441 2.51172 1.83496 2.95117 1.60059 3.50781C1.24902 4.38672 1.33691 6.4375 1.33691 7.375C1.33691 8.3418 1.24902 10.3926 1.60059 11.2422C1.83496 11.8281 2.27441 12.2676 2.86035 12.502C3.70996 12.8535 5.76074 12.7656 6.72754 12.7656C7.66504 12.7656 9.71582 12.8535 10.5947 12.502C11.1514 12.2676 11.6201 11.8281 11.8252 11.2422Z" fill="white"/>
</svg>
