<svg width="148" height="35" viewBox="0 0 148 35" fill="none" xmlns="http://www.w3.org/2000/svg">
<path d="M56.6954 28.3877L52.9994 21.8597H51.4154V28.3877H48.0554V11.6357H54.3434C55.6394 11.6357 56.7434 11.8677 57.6554 12.3317C58.5674 12.7797 59.2474 13.3957 59.6954 14.1797C60.1594 14.9477 60.3914 15.8117 60.3914 16.7717C60.3914 17.8757 60.0714 18.8757 59.4314 19.7717C58.7914 20.6517 57.8394 21.2597 56.5754 21.5957L60.5834 28.3877H56.6954ZM51.4154 19.3397H54.2234C55.1354 19.3397 55.8154 19.1237 56.2634 18.6917C56.7114 18.2437 56.9354 17.6277 56.9354 16.8437C56.9354 16.0757 56.7114 15.4837 56.2634 15.0677C55.8154 14.6357 55.1354 14.4197 54.2234 14.4197H51.4154V19.3397ZM75.7904 21.4517C75.7904 21.9317 75.7584 22.3637 75.6944 22.7477H65.9744C66.0544 23.7077 66.3904 24.4597 66.9824 25.0037C67.5744 25.5477 68.3024 25.8197 69.1664 25.8197C70.4144 25.8197 71.3024 25.2837 71.8304 24.2117H75.4544C75.0704 25.4917 74.3344 26.5477 73.2464 27.3797C72.1584 28.1957 70.8224 28.6037 69.2384 28.6037C67.9584 28.6037 66.8064 28.3237 65.7824 27.7637C64.7744 27.1877 63.9824 26.3797 63.4064 25.3397C62.8464 24.2997 62.5664 23.0997 62.5664 21.7397C62.5664 20.3637 62.8464 19.1557 63.4064 18.1157C63.9664 17.0757 64.7504 16.2757 65.7584 15.7157C66.7664 15.1557 67.9264 14.8757 69.2384 14.8757C70.5024 14.8757 71.6304 15.1477 72.6224 15.6917C73.6304 16.2357 74.4064 17.0117 74.9504 18.0197C75.5104 19.0117 75.7904 20.1557 75.7904 21.4517ZM72.3104 20.4917C72.2944 19.6277 71.9824 18.9397 71.3744 18.4277C70.7664 17.8997 70.0224 17.6357 69.1424 17.6357C68.3104 17.6357 67.6064 17.8917 67.0304 18.4037C66.4704 18.8997 66.1264 19.5957 65.9984 20.4917H72.3104ZM77.3789 21.6917C77.3789 20.3477 77.6429 19.1557 78.1709 18.1157C78.7149 17.0757 79.4429 16.2757 80.3549 15.7157C81.2829 15.1557 82.3149 14.8757 83.4509 14.8757C84.4429 14.8757 85.3069 15.0757 86.0429 15.4757C86.7949 15.8757 87.3949 16.3797 87.8429 16.9877V15.0917H91.2269V28.3877H87.8429V26.4437C87.4109 27.0677 86.8109 27.5877 86.0429 28.0037C85.2909 28.4037 84.4189 28.6037 83.4269 28.6037C82.3069 28.6037 81.2829 28.3157 80.3549 27.7397C79.4429 27.1637 78.7149 26.3557 78.1709 25.3157C77.6429 24.2597 77.3789 23.0517 77.3789 21.6917ZM87.8429 21.7397C87.8429 20.9237 87.6829 20.2277 87.3629 19.6517C87.0429 19.0597 86.6109 18.6117 86.0669 18.3077C85.5229 17.9877 84.9389 17.8277 84.3149 17.8277C83.6909 17.8277 83.1149 17.9797 82.5869 18.2837C82.0589 18.5877 81.6269 19.0357 81.2909 19.6277C80.9709 20.2037 80.8109 20.8917 80.8109 21.6917C80.8109 22.4917 80.9709 23.1957 81.2909 23.8037C81.6269 24.3957 82.0589 24.8517 82.5869 25.1717C83.1309 25.4917 83.7069 25.6517 84.3149 25.6517C84.9389 25.6517 85.5229 25.4997 86.0669 25.1957C86.6109 24.8757 87.0429 24.4277 87.3629 23.8517C87.6829 23.2597 87.8429 22.5557 87.8429 21.7397ZM101.877 14.8997C103.461 14.8997 104.741 15.4037 105.717 16.4117C106.693 17.4037 107.181 18.7957 107.181 20.5877V28.3877H103.821V21.0437C103.821 19.9877 103.557 19.1797 103.029 18.6197C102.501 18.0437 101.781 17.7557 100.869 17.7557C99.9405 17.7557 99.2045 18.0437 98.6605 18.6197C98.1325 19.1797 97.8685 19.9877 97.8685 21.0437V28.3877H94.5085V15.0917H97.8685V16.7477C98.3165 16.1717 98.8845 15.7237 99.5725 15.4037C100.277 15.0677 101.045 14.8997 101.877 14.8997ZM114.288 17.8517V24.2837C114.288 24.7317 114.392 25.0597 114.6 25.2677C114.824 25.4597 115.192 25.5557 115.704 25.5557H117.264V28.3877H115.152C112.32 28.3877 110.904 27.0117 110.904 24.2597V17.8517H109.32V15.0917H110.904V11.8037H114.288V15.0917H117.264V17.8517H114.288ZM132.4 15.0917L124.168 34.6757H120.592L123.472 28.0517L118.144 15.0917H121.912L125.344 24.3797L128.824 15.0917H132.4Z" fill="white"/>
<path d="M135.7 28.5557C135.092 28.5557 134.588 28.3717 134.188 28.0037C133.804 27.6197 133.612 27.1477 133.612 26.5877C133.612 26.0277 133.804 25.5637 134.188 25.1957C134.588 24.8117 135.092 24.6197 135.7 24.6197C136.292 24.6197 136.78 24.8117 137.164 25.1957C137.548 25.5637 137.74 26.0277 137.74 26.5877C137.74 27.1477 137.548 27.6197 137.164 28.0037C136.78 28.3717 136.292 28.5557 135.7 28.5557Z" fill="#FF5A3C"/>
<path d="M37.4985 14.0976L20.6504 0.930576C19.9109 0.352547 18.7957 0.35261 18.0565 0.930513L1.20824 14.0977C0.615852 14.5606 0.420173 15.274 0.709584 15.9149C0.999068 16.5558 1.70389 16.9699 2.50531 16.9699H5.19625V30.1623C5.19625 30.6854 5.69073 31.1095 6.30058 31.1095H15.5355C16.1453 31.1095 16.6398 30.6854 16.6398 30.1623V22.1523H22.0673V30.1624C22.0673 30.6854 22.5618 31.1095 23.1716 31.1095H32.4061C33.0159 31.1095 33.5104 30.6855 33.5104 30.1624V16.9699H36.2018C37.0032 16.9699 37.7081 16.5558 37.9976 15.9149C38.2866 15.2739 38.0909 14.5606 37.4985 14.0976Z" fill="#FF5A3C"/>
<path d="M33.2201 2.3877H25.8037L34.3244 9.03266V3.33478C34.3244 2.81173 33.83 2.3877 33.2201 2.3877Z" fill="#FF5A3C"/>
</svg>
