<svg width="16" height="15" viewBox="0 0 16 15" fill="none" xmlns="http://www.w3.org/2000/svg">
<path d="M15.1611 7.375C15.1611 11.3887 11.9092 14.6406 7.89551 14.6406C7.13379 14.6406 6.40137 14.5527 5.72754 14.3184C6.02051 13.8496 6.45996 13.0586 6.63574 12.4141C6.72363 12.0918 7.0752 10.6855 7.0752 10.6855C7.30957 11.1543 8.0127 11.5352 8.74512 11.5352C10.9424 11.5352 12.5244 9.51367 12.5244 7.02344C12.5244 4.62109 10.5615 2.80469 8.04199 2.80469C4.90723 2.80469 3.2373 4.91406 3.2373 7.19922C3.2373 8.2832 3.79395 9.60156 4.70215 10.041C4.84863 10.0996 4.93652 10.0703 4.96582 9.92383C4.96582 9.83594 5.1123 9.33789 5.1709 9.10352C5.1709 9.04492 5.1709 8.95703 5.1123 8.89844C4.81934 8.54688 4.58496 7.87305 4.58496 7.22852C4.58496 5.64648 5.78613 4.09375 7.86621 4.09375C9.62402 4.09375 10.8838 5.29492 10.8838 7.05273C10.8838 9.01562 9.8877 10.3633 8.59863 10.3633C7.89551 10.3633 7.36816 9.77734 7.51465 9.07422C7.71973 8.19531 8.12988 7.25781 8.12988 6.64258C8.12988 6.08594 7.83691 5.61719 7.22168 5.61719C6.48926 5.61719 5.90332 6.37891 5.90332 7.375C5.90332 8.01953 6.1084 8.45898 6.1084 8.45898C6.1084 8.45898 5.40527 11.5059 5.25879 12.0625C5.1123 12.707 5.1709 13.5859 5.22949 14.1426C2.53418 13.0879 0.629883 10.4805 0.629883 7.375C0.629883 3.36133 3.88184 0.109375 7.89551 0.109375C11.9092 0.109375 15.1611 3.36133 15.1611 7.375Z" fill="white"/>
</svg>
