<svg width="16" height="13" viewBox="0 0 16 13" fill="none" xmlns="http://www.w3.org/2000/svg">
<path d="M14.0171 3.32812C14.0171 3.47461 14.0171 3.5918 14.0171 3.73828C14.0171 7.81055 10.9409 12.4688 5.28662 12.4688C3.52881 12.4688 1.91748 11.9707 0.569824 11.0918C0.804199 11.1211 1.03857 11.1504 1.30225 11.1504C2.73779 11.1504 4.05615 10.6523 5.11084 9.83203C3.76318 9.80273 2.62061 8.92383 2.23975 7.69336C2.44482 7.72266 2.62061 7.75195 2.82568 7.75195C3.08936 7.75195 3.38232 7.69336 3.6167 7.63477C2.21045 7.3418 1.15576 6.11133 1.15576 4.61719V4.58789C1.56592 4.82227 2.06396 4.93945 2.56201 4.96875C1.7124 4.41211 1.18506 3.47461 1.18506 2.41992C1.18506 1.83398 1.33154 1.30664 1.59521 0.867188C3.11865 2.71289 5.40381 3.94336 7.95264 4.08984C7.89404 3.85547 7.86475 3.62109 7.86475 3.38672C7.86475 1.6875 9.2417 0.310547 10.9409 0.310547C11.8198 0.310547 12.6108 0.662109 13.1968 1.27734C13.8706 1.13086 14.5444 0.867188 15.1304 0.515625C14.896 1.24805 14.4272 1.83398 13.7827 2.21484C14.3979 2.15625 15.0132 1.98047 15.5405 1.74609C15.1304 2.36133 14.603 2.88867 14.0171 3.32812Z" fill="#FF5A3C"/>
</svg>
