<svg width="17" height="12" viewBox="0 0 17 12" fill="none" xmlns="http://www.w3.org/2000/svg">
<path d="M16.5693 2.53711C16.9209 3.76758 16.9209 6.4043 16.9209 6.4043C16.9209 6.4043 16.9209 9.01172 16.5693 10.2715C16.3936 10.9746 15.8369 11.502 15.1631 11.6777C13.9033 12 8.92285 12 8.92285 12C8.92285 12 3.91309 12 2.65332 11.6777C1.97949 11.502 1.42285 10.9746 1.24707 10.2715C0.895508 9.01172 0.895508 6.4043 0.895508 6.4043C0.895508 6.4043 0.895508 3.76758 1.24707 2.53711C1.42285 1.83398 1.97949 1.27734 2.65332 1.10156C3.91309 0.75 8.92285 0.75 8.92285 0.75C8.92285 0.75 13.9033 0.75 15.1631 1.10156C15.8369 1.27734 16.3936 1.83398 16.5693 2.53711ZM7.28223 8.77734L11.4424 6.4043L7.28223 4.03125V8.77734Z" fill="white"/>
</svg>
